<svg width="648" height="107" viewBox="0 0 648 107" fill="none" xmlns="http://www.w3.org/2000/svg">
<path d="M74.5645 89.9C68.1645 89.9 62.5645 88.7 57.7645 86.3C53.0311 83.8333 49.3311 80.5 46.6645 76.3C44.0645 72.0333 42.7645 67.2 42.7645 61.8C42.7645 56.4 44.0311 51.6 46.5645 47.4C49.1645 43.1333 52.7311 39.8333 57.2645 37.5C61.7978 35.1 66.8978 33.9 72.5645 33.9C77.8978 33.9 82.7645 35 87.1645 37.2C91.5645 39.3333 95.0645 42.5 97.6645 46.7C100.264 50.9 101.564 56 101.564 62C101.564 62.6667 101.531 63.4333 101.464 64.3C101.398 65.1667 101.331 65.9667 101.264 66.7H58.3645V56.7H91.1645L83.9645 59.5C84.0311 57.0333 83.5645 54.9 82.5645 53.1C81.6311 51.3 80.2978 49.9 78.5645 48.9C76.8978 47.9 74.9311 47.4 72.6645 47.4C70.3978 47.4 68.3978 47.9 66.6645 48.9C64.9978 49.9 63.6978 51.3333 62.7645 53.2C61.8311 55 61.3645 57.1333 61.3645 59.6V62.5C61.3645 65.1667 61.8978 67.4667 62.9645 69.4C64.0978 71.3333 65.6978 72.8333 67.7645 73.9C69.8311 74.9 72.2978 75.4 75.1645 75.4C77.8311 75.4 80.0978 75.0333 81.9645 74.3C83.8978 73.5 85.7978 72.3 87.6645 70.7L97.6645 81.1C95.0645 83.9667 91.8645 86.1667 88.0645 87.7C84.2645 89.1667 79.7645 89.9 74.5645 89.9ZM102.56 89L127.46 56.3L127.06 67.1L103.16 34.8H124.56L137.96 53.9L129.96 54.3L144.16 34.8H164.26L140.36 66.4V56L164.96 89H143.26L129.26 68.6L137.26 69.7L123.16 89H102.56ZM196.911 89.9C190.911 89.9 185.545 88.7 180.811 86.3C176.145 83.9 172.478 80.6 169.811 76.4C167.145 72.1333 165.811 67.2667 165.811 61.8C165.811 56.3333 167.145 51.5 169.811 47.3C172.478 43.1 176.145 39.8333 180.811 37.5C185.545 35.1 190.911 33.9 196.911 33.9C203.045 33.9 208.345 35.2 212.811 37.8C217.278 40.4 220.445 44.0667 222.311 48.8L207.611 56.3C206.345 53.7667 204.778 51.9333 202.911 50.8C201.045 49.6 199.011 49 196.811 49C194.611 49 192.611 49.5 190.811 50.5C189.011 51.5 187.578 52.9667 186.511 54.9C185.511 56.7667 185.011 59.0667 185.011 61.8C185.011 64.6 185.511 66.9667 186.511 68.9C187.578 70.8333 189.011 72.3 190.811 73.3C192.611 74.3 194.611 74.8 196.811 74.8C199.011 74.8 201.045 74.2333 202.911 73.1C204.778 71.9 206.345 70.0333 207.611 67.5L222.311 75C220.445 79.7333 217.278 83.4 212.811 86C208.345 88.6 203.045 89.9 196.911 89.9ZM257.279 89.9C250.879 89.9 245.279 88.7 240.479 86.3C235.746 83.8333 232.046 80.5 229.379 76.3C226.779 72.0333 225.479 67.2 225.479 61.8C225.479 56.4 226.746 51.6 229.279 47.4C231.879 43.1333 235.446 39.8333 239.979 37.5C244.513 35.1 249.613 33.9 255.279 33.9C260.613 33.9 265.479 35 269.879 37.2C274.279 39.3333 277.779 42.5 280.379 46.7C282.979 50.9 284.279 56 284.279 62C284.279 62.6667 284.246 63.4333 284.179 64.3C284.113 65.1667 284.046 65.9667 283.979 66.7H241.079V56.7H273.879L266.679 59.5C266.746 57.0333 266.279 54.9 265.279 53.1C264.346 51.3 263.013 49.9 261.279 48.9C259.613 47.9 257.646 47.4 255.379 47.4C253.113 47.4 251.113 47.9 249.379 48.9C247.713 49.9 246.413 51.3333 245.479 53.2C244.546 55 244.079 57.1333 244.079 59.6V62.5C244.079 65.1667 244.613 67.4667 245.679 69.4C246.813 71.3333 248.413 72.8333 250.479 73.9C252.546 74.9 255.013 75.4 257.879 75.4C260.546 75.4 262.813 75.0333 264.679 74.3C266.613 73.5 268.513 72.3 270.379 70.7L280.379 81.1C277.779 83.9667 274.579 86.1667 270.779 87.7C266.979 89.1667 262.479 89.9 257.279 89.9ZM293.039 89V14.8H312.039V89H293.039ZM324.387 89V14.8H343.387V89H324.387ZM384.135 89.9C377.735 89.9 372.135 88.7 367.335 86.3C362.601 83.8333 358.901 80.5 356.235 76.3C353.635 72.0333 352.335 67.2 352.335 61.8C352.335 56.4 353.601 51.6 356.135 47.4C358.735 43.1333 362.301 39.8333 366.835 37.5C371.368 35.1 376.468 33.9 382.135 33.9C387.468 33.9 392.335 35 396.735 37.2C401.135 39.3333 404.635 42.5 407.235 46.7C409.835 50.9 411.135 56 411.135 62C411.135 62.6667 411.101 63.4333 411.035 64.3C410.968 65.1667 410.901 65.9667 410.835 66.7H367.935V56.7H400.735L393.535 59.5C393.601 57.0333 393.135 54.9 392.135 53.1C391.201 51.3 389.868 49.9 388.135 48.9C386.468 47.9 384.501 47.4 382.235 47.4C379.968 47.4 377.968 47.9 376.235 48.9C374.568 49.9 373.268 51.3333 372.335 53.2C371.401 55 370.935 57.1333 370.935 59.6V62.5C370.935 65.1667 371.468 67.4667 372.535 69.4C373.668 71.3333 375.268 72.8333 377.335 73.9C379.401 74.9 381.868 75.4 384.735 75.4C387.401 75.4 389.668 75.0333 391.535 74.3C393.468 73.5 395.368 72.3 397.235 70.7L407.235 81.1C404.635 83.9667 401.435 86.1667 397.635 87.7C393.835 89.1667 389.335 89.9 384.135 89.9ZM455.195 33.9C459.395 33.9 463.195 34.7667 466.595 36.5C469.995 38.1667 472.662 40.7667 474.595 44.3C476.595 47.8333 477.595 52.4 477.595 58V89H458.595V61.1C458.595 57.2333 457.795 54.4333 456.195 52.7C454.662 50.9 452.495 50 449.695 50C447.695 50 445.862 50.4667 444.195 51.4C442.528 52.2667 441.228 53.6333 440.295 55.5C439.362 57.3667 438.895 59.8 438.895 62.8V89H419.895V34.8H437.995V50.2L434.495 45.7C436.562 41.7667 439.395 38.8333 442.995 36.9C446.595 34.9 450.662 33.9 455.195 33.9ZM517.907 89.9C511.907 89.9 506.541 88.7 501.807 86.3C497.141 83.9 493.474 80.6 490.807 76.4C488.141 72.1333 486.807 67.2667 486.807 61.8C486.807 56.3333 488.141 51.5 490.807 47.3C493.474 43.1 497.141 39.8333 501.807 37.5C506.541 35.1 511.907 33.9 517.907 33.9C524.041 33.9 529.341 35.2 533.807 37.8C538.274 40.4 541.441 44.0667 543.307 48.8L528.607 56.3C527.341 53.7667 525.774 51.9333 523.907 50.8C522.041 49.6 520.007 49 517.807 49C515.607 49 513.607 49.5 511.807 50.5C510.007 51.5 508.574 52.9667 507.507 54.9C506.507 56.7667 506.007 59.0667 506.007 61.8C506.007 64.6 506.507 66.9667 507.507 68.9C508.574 70.8333 510.007 72.3 511.807 73.3C513.607 74.3 515.607 74.8 517.807 74.8C520.007 74.8 522.041 74.2333 523.907 73.1C525.774 71.9 527.341 70.0333 528.607 67.5L543.307 75C541.441 79.7333 538.274 83.4 533.807 86C529.341 88.6 524.041 89.9 517.907 89.9ZM578.275 89.9C571.875 89.9 566.275 88.7 561.475 86.3C556.742 83.8333 553.042 80.5 550.375 76.3C547.775 72.0333 546.475 67.2 546.475 61.8C546.475 56.4 547.742 51.6 550.275 47.4C552.875 43.1333 556.442 39.8333 560.975 37.5C565.509 35.1 570.609 33.9 576.275 33.9C581.609 33.9 586.475 35 590.875 37.2C595.275 39.3333 598.775 42.5 601.375 46.7C603.975 50.9 605.275 56 605.275 62C605.275 62.6667 605.242 63.4333 605.175 64.3C605.109 65.1667 605.042 65.9667 604.975 66.7H562.075V56.7H594.875L587.675 59.5C587.742 57.0333 587.275 54.9 586.275 53.1C585.342 51.3 584.009 49.9 582.275 48.9C580.609 47.9 578.642 47.4 576.375 47.4C574.109 47.4 572.109 47.9 570.375 48.9C568.709 49.9 567.409 51.3333 566.475 53.2C565.542 55 565.075 57.1333 565.075 59.6V62.5C565.075 65.1667 565.609 67.4667 566.675 69.4C567.809 71.3333 569.409 72.8333 571.475 73.9C573.542 74.9 576.009 75.4 578.875 75.4C581.542 75.4 583.809 75.0333 585.675 74.3C587.609 73.5 589.509 72.3 591.375 70.7L601.375 81.1C598.775 83.9667 595.575 86.1667 591.775 87.7C587.975 89.1667 583.475 89.9 578.275 89.9Z" fill="#343434"/>
<rect x="420" y="12" width="18" height="18" fill="#7BFF93"/>
</svg>
